<?xml version="1.0" encoding="utf-8"?>
<!-- Generator: Adobe Illustrator 27.0.1, SVG Export Plug-In . SVG Version: 6.00 Build 0)  -->
<svg version="1.1" id="Layer_1" xmlns="http://www.w3.org/2000/svg" xmlns:xlink="http://www.w3.org/1999/xlink" x="0px" y="0px"
	 viewBox="0 0 400 400" style="enable-background:new 0 0 400 400;" xml:space="preserve">
<style type="text/css">
	.st0{fill:#FFFFFF;}
	.st1{fill:#142630;}
	.st2{fill:#FFD013;}
</style>
<g>
	<path class="st1" d="M267.2,238.9l-28.3,28.3c-2,2-2,5.1,0,7.1c2,2,5.1,2,7.1,0l28.3-28.3c2-2,2-5.1,0-7.1
		C272.3,236.9,269.1,236.9,267.2,238.9z"/>
	<path class="st1" d="M253,224.7L224.7,253c-2,2-2,5.1,0,7.1c2,2,5.1,2,7.1,0l28.3-28.3c2-2,2-5.1,0-7.1
		C258.2,222.8,255,222.8,253,224.7z"/>
	<path class="st1" d="M238.9,210.6l-28.3,28.3c-2,2-2,5.1,0,7.1c2,2,5.1,2,7.1,0l28.3-28.3c2-2,2-5.1,0-7.1
		C244,208.7,240.8,208.7,238.9,210.6z"/>
	<path class="st1" d="M90.4,118.7l10.6-10.6l24.7,24.7c2,2,5.1,2,7.1,0c2-2,2-5.1,0-7.1L108.1,101l10.6-10.6c2-2,2-5.1,0-7.1
		c-2-2-5.1-2-7.1,0L93.9,101l-10.6,10.6c-2,2-2,5.1,0,7.1C85.3,120.6,88.4,120.6,90.4,118.7z"/>
	<path class="st1" d="M210.6,182.3L200,192.9l-10.6-10.6c-2-2-5.1-2-7.1,0c-2,2-2,5.1,0,7.1l10.6,10.6l-10.6,10.6c-2,2-2,5.1,0,7.1
		c2,2,5.1,2,7.1,0l10.6-10.6l10.6,10.6c2,2,5.1,2,7.1,0c2-2,2-5.1,0-7.1L207.1,200l10.6-10.6c2-2,2-5.1,0-7.1
		C215.7,180.4,212.6,180.4,210.6,182.3z"/>
	<path class="st1" d="M281.3,253c-2,2-2,5.1,0,7.1l28.3,28.3c2,2,5.1,2,7.1,0c2-2,2-5.1,0-7.1L288.4,253
		C286.4,251.1,283.3,251.1,281.3,253z"/>
	<path class="st1" d="M267.2,267.2c-2,2-2,5.1,0,7.1l28.3,28.3c2,2,5.1,2,7.1,0c2-2,2-5.1,0-7.1l-28.3-28.3
		C272.3,265.2,269.1,265.2,267.2,267.2z"/>
	<path class="st1" d="M253,281.3c-2,2-2,5.1,0,7.1l28.3,28.3c2,2,5.1,2,7.1,0c2-2,2-5.1,0-7.1l-28.3-28.3
		C258.2,279.4,255,279.4,253,281.3z"/>
	<path class="st1" d="M154,125.8L125.8,154c-2,2-2,5.1,0,7.1l28.3,28.3c2,2,5.1,2,7.1,0l28.3-28.3c2-2,2-5.1,0-7.1l-28.3-28.3
		C159.2,123.8,156,123.8,154,125.8z M178.8,157.6l-21.2,21.2l-21.2-21.2l21.2-21.2L178.8,157.6z"/>
</g>
<g>
	<path class="st1" d="M161.1,267.2l-28.3-28.3c-2-2-5.1-2-7.1,0c-2,2-2,5.1,0,7.1l28.3,28.3c2,2,5.1,2,7.1,0
		C163.1,272.3,163.1,269.1,161.1,267.2z"/>
	<path class="st1" d="M175.3,253L147,224.7c-2-2-5.1-2-7.1,0c-2,2-2,5.1,0,7.1l28.3,28.3c2,2,5.1,2,7.1,0
		C177.2,258.2,177.2,255,175.3,253z"/>
	<path class="st1" d="M189.4,238.9l-28.3-28.3c-2-2-5.1-2-7.1,0c-2,2-2,5.1,0,7.1l28.3,28.3c2,2,5.1,2,7.1,0
		C191.3,244,191.3,240.8,189.4,238.9z"/>
	<path class="st1" d="M281.3,90.4l10.6,10.6l-24.7,24.7c-2,2-2,5.1,0,7.1c2,2,5.1,2,7.1,0l24.7-24.7l10.6,10.6c2,2,5.1,2,7.1,0
		c2-2,2-5.1,0-7.1L299,93.9l-10.6-10.6c-2-2-5.1-2-7.1,0C279.4,85.3,279.4,88.4,281.3,90.4z"/>
	<path class="st1" d="M147,281.3c-2-2-5.1-2-7.1,0l-28.3,28.3c-2,2-2,5.1,0,7.1c2,2,5.1,2,7.1,0l28.3-28.3
		C148.9,286.4,148.9,283.3,147,281.3z"/>
	<path class="st1" d="M132.8,267.2c-2-2-5.1-2-7.1,0l-28.3,28.3c-2,2-2,5.1,0,7.1c2,2,5.1,2,7.1,0l28.3-28.3
		C134.8,272.3,134.8,269.1,132.8,267.2z"/>
	<path class="st1" d="M118.7,253c-2-2-5.1-2-7.1,0l-28.3,28.3c-2,2-2,5.1,0,7.1c2,2,5.1,2,7.1,0l28.3-28.3
		C120.6,258.2,120.6,255,118.7,253z"/>
	<path class="st1" d="M274.2,154L246,125.8c-2-2-5.1-2-7.1,0L210.6,154c-2,2-2,5.1,0,7.1l28.3,28.3c2,2,5.1,2,7.1,0l28.3-28.3
		C276.2,159.2,276.2,156,274.2,154z M242.4,178.8l-21.2-21.2l21.2-21.2l21.2,21.2L242.4,178.8z"/>
</g>
</svg>
