<?xml version="1.0" encoding="utf-8"?>
<!-- Generator: Adobe Illustrator 27.0.1, SVG Export Plug-In . SVG Version: 6.00 Build 0)  -->
<svg version="1.1" id="Layer_1" xmlns="http://www.w3.org/2000/svg" xmlns:xlink="http://www.w3.org/1999/xlink" x="0px" y="0px"
	 viewBox="0 0 400 400" style="enable-background:new 0 0 400 400;" xml:space="preserve">
<style type="text/css">
	.st0{fill:#FFFFFF;}
	.st1{fill:#142630;}
	.st2{fill:#FFD013;}
</style>
<g>
	<path class="st1" d="M220,275h-40c-2.8,0-5,2.2-5,5s2.2,5,5,5h40c2.8,0,5-2.2,5-5S222.8,275,220,275z"/>
	<path class="st1" d="M220,255h-40c-2.8,0-5,2.2-5,5s2.2,5,5,5h40c2.8,0,5-2.2,5-5S222.8,255,220,255z"/>
	<path class="st1" d="M220,235h-40c-2.8,0-5,2.2-5,5s2.2,5,5,5h40c2.8,0,5-2.2,5-5S222.8,235,220,235z"/>
	<path class="st1" d="M180,65h15v35c0,2.8,2.2,5,5,5c2.8,0,5-2.2,5-5V65h15c2.8,0,5-2.2,5-5s-2.2-5-5-5h-25h-15c-2.8,0-5,2.2-5,5
		S177.2,65,180,65z"/>
	<path class="st1" d="M220,195h-15v-15c0-2.8-2.2-5-5-5c-2.8,0-5,2.2-5,5v15h-15c-2.8,0-5,2.2-5,5c0,2.8,2.2,5,5,5h15v15
		c0,2.8,2.2,5,5,5c2.8,0,5-2.2,5-5v-15h15c2.8,0,5-2.2,5-5C225,197.2,222.8,195,220,195z"/>
	<path class="st1" d="M220,295c-2.8,0-5,2.2-5,5v40c0,2.8,2.2,5,5,5c2.8,0,5-2.2,5-5v-40C225,297.2,222.8,295,220,295z"/>
	<path class="st1" d="M200,295c-2.8,0-5,2.2-5,5v40c0,2.8,2.2,5,5,5c2.8,0,5-2.2,5-5v-40C205,297.2,202.8,295,200,295z"/>
	<path class="st1" d="M180,295c-2.8,0-5,2.2-5,5v40c0,2.8,2.2,5,5,5c2.8,0,5-2.2,5-5v-40C185,297.2,182.8,295,180,295z"/>
	<path class="st1" d="M220,115h-40c-2.8,0-5,2.2-5,5v40c0,2.8,2.2,5,5,5h40c2.8,0,5-2.2,5-5v-40C225,117.2,222.8,115,220,115z
		 M215,155h-30v-30h30V155z"/>
</g>
</svg>
