<?xml version="1.0" encoding="utf-8"?>
<!-- Generator: Adobe Illustrator 27.0.1, SVG Export Plug-In . SVG Version: 6.00 Build 0)  -->
<svg version="1.1" id="Layer_1" xmlns="http://www.w3.org/2000/svg" xmlns:xlink="http://www.w3.org/1999/xlink" x="0px" y="0px"
	 viewBox="0 0 400 400" style="enable-background:new 0 0 400 400;" xml:space="preserve">
<style type="text/css">
	.st0{fill:#FFFFFF;}
	.st1{fill:#142630;}
	.st2{fill:#FFD013;}
</style>
<g>
	<path class="st1" d="M280,215h-40c-2.8,0-5,2.2-5,5s2.2,5,5,5h40c2.8,0,5-2.2,5-5S282.8,215,280,215z"/>
	<path class="st1" d="M280,195h-40c-2.8,0-5,2.2-5,5s2.2,5,5,5h40c2.8,0,5-2.2,5-5S282.8,195,280,195z"/>
	<path class="st1" d="M280,175h-40c-2.8,0-5,2.2-5,5s2.2,5,5,5h40c2.8,0,5-2.2,5-5S282.8,175,280,175z"/>
	<path class="st1" d="M100,175H75H60c-2.8,0-5,2.2-5,5s2.2,5,5,5h15v35c0,2.8,2.2,5,5,5s5-2.2,5-5v-35h15c2.8,0,5-2.2,5-5
		S102.8,175,100,175z"/>
	<path class="st1" d="M220,195h-15v-15c0-2.8-2.2-5-5-5s-5,2.2-5,5v15h-15c-2.8,0-5,2.2-5,5s2.2,5,5,5h15v15c0,2.8,2.2,5,5,5
		s5-2.2,5-5v-15h15c2.8,0,5-2.2,5-5S222.8,195,220,195z"/>
	<path class="st1" d="M340,175c-2.8,0-5,2.2-5,5v40c0,2.8,2.2,5,5,5s5-2.2,5-5v-40C345,177.2,342.8,175,340,175z"/>
	<path class="st1" d="M320,175c-2.8,0-5,2.2-5,5v40c0,2.8,2.2,5,5,5s5-2.2,5-5v-40C325,177.2,322.8,175,320,175z"/>
	<path class="st1" d="M300,175c-2.8,0-5,2.2-5,5v40c0,2.8,2.2,5,5,5s5-2.2,5-5v-40C305,177.2,302.8,175,300,175z"/>
	<path class="st1" d="M160,175h-40c-2.8,0-5,2.2-5,5v40c0,2.8,2.2,5,5,5h40c2.8,0,5-2.2,5-5v-40C165,177.2,162.8,175,160,175z
		 M155,215h-30v-30h30V215z"/>
</g>
</svg>
