<?xml version="1.0" encoding="utf-8"?>
<!-- Generator: Adobe Illustrator 27.0.1, SVG Export Plug-In . SVG Version: 6.00 Build 0)  -->
<svg version="1.1" id="Layer_1" xmlns="http://www.w3.org/2000/svg" xmlns:xlink="http://www.w3.org/1999/xlink" x="0px" y="0px"
	 viewBox="0 0 300 300" style="enable-background:new 0 0 300 300;" xml:space="preserve">
<style type="text/css">
	.st0{fill:#FFFFFF;}
	.st1{fill:#142630;}
	.st2{fill:#FFD013;}
</style>
<g>
	<path class="st1" d="M220,125h-30c-2.8,0-5,2.2-5,5v0v0v10c0,2.8,2.2,5,5,5h0c2.8,0,5-2.2,5-5v-5h20v10h-5c-2.8,0-5,2.2-5,5
		s2.2,5,5,5h10c2.8,0,5-2.2,5-5v-20v0v0C225,127.2,222.8,125,220,125z"/>
	<path class="st1" d="M160,225h-20c-2.8,0-5,2.2-5,5s2.2,5,5,5h20c2.8,0,5-2.2,5-5S162.8,225,160,225z"/>
	<path class="st1" d="M180,155h-10h0c-1.7,0-3.2,0.9-4.1,2.2c-0.5,0.8-0.9,1.8-0.9,2.8v10c0,2.8,2.2,5,5,5h0c2.8,0,5-2.2,5-5v-5h5
		c2.8,0,5-2.2,5-5S182.8,155,180,155z"/>
	<path class="st1" d="M115,130L115,130L115,130c0-2.8-2.2-5-5-5H80c-2.8,0-5,2.2-5,5l0,0v0v20c0,2.8,2.2,5,5,5h10c2.8,0,5-2.2,5-5
		s-2.2-5-5-5h-5v-10h20v5c0,2.8,2.2,5,5,5c2.8,0,5-2.2,5-5V130z"/>
	<path class="st1" d="M125,170c0,2.8,2.2,5,5,5h0c2.8,0,5-2.2,5-5v-10c0-2.8-2.2-5-5-5h0h-10c-2.8,0-5,2.2-5,5s2.2,5,5,5h5V170z"/>
	<path class="st1" d="M230,65h-10c-2.8,0-5,2.2-5,5s2.2,5,5,5h5v10h-5c-2.8,0-5,2.2-5,5s2.2,5,5,5h5v10h-20V90c0-2.8-2.2-5-5-5h0
		c-2.8,0-5,2.2-5,5v15h-20V80c0-2.8-2.2-5-5-5s-5,2.2-5,5v55h-15h0h-15v-25c0,0,0,0,0,0v0c0,0,0,0,0,0V80c0-2.8-2.2-5-5-5
		c-2.8,0-5,2.2-5,5v25h-20V90c0-2.8-2.2-5-5-5c-2.8,0-5,2.2-5,5v15H75V95h5c2.8,0,5-2.2,5-5s-2.2-5-5-5h-5V75h5c2.8,0,5-2.2,5-5
		s-2.2-5-5-5H70h0c-1.7,0-3.2,0.9-4.1,2.2C65.3,68,65,69,65,70v40v0c0,1,0.3,2,0.9,2.8c0.9,1.3,2.4,2.2,4.1,2.2h0h55v25
		c0,2.8,2.2,5,5,5c0,0,0,0,0,0s0,0,0,0h15v25c0,2.8,2.2,5,5,5h0c2.8,0,5-2.2,5-5v-25h15c2.8,0,5-2.2,5-5c0,0,0,0,0,0v-25h25
		c0,0,0,0,0,0h0c0,0,0,0,0,0h30c2.8,0,5-2.2,5-5v0V70C235,67.2,232.8,65,230,65z"/>
	<path class="st1" d="M175,190c0-2.8-2.2-5-5-5h-40c0,0,0,0,0,0s0,0,0,0c-2.8,0-5,2.2-5,5v20c0,2.8,2.2,5,5,5c0,0,0,0,0,0s0,0,0,0
		h10c2.8,0,5-2.2,5-5s-2.2-5-5-5h-5v-10h30v10h-5c-2.8,0-5,2.2-5,5s2.2,5,5,5h10c2.8,0,5-2.2,5-5c0,0,0,0,0,0L175,190
		C175,190,175,190,175,190z"/>
</g>
</svg>
