<?xml version="1.0" encoding="utf-8"?>
<!-- Generator: Adobe Illustrator 27.0.1, SVG Export Plug-In . SVG Version: 6.00 Build 0)  -->
<svg version="1.1" id="Layer_1" xmlns="http://www.w3.org/2000/svg" xmlns:xlink="http://www.w3.org/1999/xlink" x="0px" y="0px"
	 viewBox="0 0 300 300" style="enable-background:new 0 0 300 300;" xml:space="preserve">
<style type="text/css">
	.st0{fill:#FFFFFF;}
	.st1{fill:#142630;}
	.st2{fill:#FFD013;}
</style>
<g>
	<path class="st1" d="M70,140h30c2.8,0,5-2.2,5-5v-15h15c2.8,0,5-2.2,5-5s-2.2-5-5-5h-15V95c0-2.8-2.2-5-5-5H80c-2.8,0-5,2.2-5,5
		s2.2,5,5,5h15v30H70c-2.8,0-5,2.2-5,5S67.2,140,70,140z"/>
	<circle class="st1" cx="80" cy="115" r="5"/>
	<path class="st1" d="M205,100h15c2.8,0,5-2.2,5-5s-2.2-5-5-5h-20c-2.8,0-5,2.2-5,5v15h-15c-2.8,0-5,2.2-5,5s2.2,5,5,5h15v15
		c0,2.8,2.2,5,5,5h30c2.8,0,5-2.2,5-5s-2.2-5-5-5h-25V100z"/>
	<circle class="st1" cx="220" cy="115" r="5"/>
	<circle class="st1" cx="140" cy="125" r="5"/>
	<circle class="st1" cx="160" cy="125" r="5"/>
	<path class="st1" d="M205,155L205,155L205,155c0-2.8-2.2-5-5-5h0h0H100l0,0h0c-2.8,0-5,2.2-5,5v0v0v10c0,2.8,2.2,5,5,5
		c2.8,0,5-2.2,5-5v-5h90v5c0,2.8,2.2,5,5,5c2.8,0,5-2.2,5-5V155z"/>
	<path class="st1" d="M80,80h35v15v0v0c0,2.8,2.2,5,5,5h0l0,0h60h0h0c1.4,0,2.6-0.6,3.5-1.5c0.2-0.2,0.4-0.5,0.6-0.7
		C184.7,97,185,96,185,95v0v0V80h35c2.8,0,5-2.2,5-5s-2.2-5-5-5h-40c-2.8,0-5,2.2-5,5v15h-50V75c0-2.8-2.2-5-5-5H80
		c-2.8,0-5,2.2-5,5S77.2,80,80,80z"/>
	<path class="st1" d="M160,180c2.8,0,5-2.2,5-5s-2.2-5-5-5h-20c-2.8,0-5,2.2-5,5s2.2,5,5,5H160z"/>
	<path class="st1" d="M190,220h-5v-25c0-2.8-2.2-5-5-5c-2.8,0-5,2.2-5,5v5h-50v-5c0-2.8-2.2-5-5-5c-2.8,0-5,2.2-5,5v25h-5
		c-2.8,0-5,2.2-5,5v0c0,2.8,2.2,5,5,5h10c0,0,0,0,0,0s0,0,0,0h10c2.8,0,5-2.2,5-5v0c0-2.8-2.2-5-5-5h-5v-10h50v10h-5
		c-2.8,0-5,2.2-5,5s2.2,5,5,5h10c0,0,0,0,0,0s0,0,0,0h10c2.8,0,5-2.2,5-5S192.8,220,190,220z"/>
	<path class="st1" d="M90,190H75v-10h5c2.8,0,5-2.2,5-5s-2.2-5-5-5H70c0,0,0,0,0,0c-2.8,0-5,2.2-5,5v20c0,2.8,2.2,5,5,5c0,0,0,0,0,0
		h15v10h-5c-2.8,0-5,2.2-5,5s2.2,5,5,5h10c2.8,0,5-2.2,5-5v-20c0,0,0,0,0,0s0,0,0,0C95,192.2,92.8,190,90,190z"/>
	<path class="st1" d="M230,170c-0.1,0-0.1,0-0.2,0H220c-2.8,0-5,2.2-5,5s2.2,5,5,5h5v10h-15c-2.8,0-5,2.2-5,5c0,0,0,0,0,0s0,0,0,0
		v20c0,2.8,2.2,5,5,5h10c2.8,0,5-2.2,5-5s-2.2-5-5-5h-5v-10h15c0,0,0,0,0,0c2.8,0,5-2.2,5-5v-20C235,172.2,232.8,170,230,170z"/>
</g>
</svg>
