<?xml version="1.0" encoding="utf-8"?>
<!-- Generator: Adobe Illustrator 27.0.1, SVG Export Plug-In . SVG Version: 6.00 Build 0)  -->
<svg version="1.1" id="Layer_1" xmlns="http://www.w3.org/2000/svg" xmlns:xlink="http://www.w3.org/1999/xlink" x="0px" y="0px"
	 viewBox="0 0 300 300" style="enable-background:new 0 0 300 300;" xml:space="preserve">
<style type="text/css">
	.st0{fill:#FFFFFF;}
	.st1{fill:#142630;}
	.st2{fill:#FFD013;}
</style>
<g>
	<path class="st1" d="M240,95c0-2.8-2.2-5-5-5h-25c-2.8,0-5,2.2-5,5v0c0,2.8,2.2,5,5,5h20v10h-10c-2.8,0-5,2.2-5,5s2.2,5,5,5h15
		c2.8,0,5-2.2,5-5V95L240,95L240,95L240,95z"/>
	<circle class="st1" cx="130" cy="75" r="5"/>
	<circle class="st1" cx="170" cy="75" r="5"/>
	<path class="st1" d="M190,220c2.8,0,5-2.2,5-5v-15h5c2.8,0,5-2.2,5-5c0,0,0,0,0,0s0,0,0,0v-80c0-2.8-2.2-5-5-5h-5V95
		c0-2.8-2.2-5-5-5h-20c-2.8,0-5,2.2-5,5v5h-10V65c0-2.8-2.2-5-5-5s-5,2.2-5,5v35h-10v-5c0-2.8-2.2-5-5-5h-20c-2.8,0-5,2.2-5,5v15h-5
		c-2.8,0-5,2.2-5,5v80c0,0,0,0,0,0s0,0,0,0c0,2.8,2.2,5,5,5h5v15c0,2.8,2.2,5,5,5h15v5c0,2.8,2.2,5,5,5h40c2.8,0,5-2.2,5-5v-5H190z
		 M185,210h-10v-10h10V210z M105,190v-30h20v30H105z M125,120v30h-20v-30H125z M195,120v30h-20v-30H195z M175,190v-30h20v30H175z
		 M135,195v-15h30v15v5h-30V195z M165,170h-30v-30h30V170z M135,210h30v10h-30V210z M175,110v-10h10v10H175z M165,110v5v15h-30v-15
		v-5H165z M115,100h10v10h-10V100z M115,210v-10h10v10H115z"/>
	<path class="st1" d="M80,110H70v-10h20c2.8,0,5-2.2,5-5s-2.2-5-5-5H65c-2.8,0-5,2.2-5,5l0,0v0v20c0,2.8,2.2,5,5,5h15
		c2.8,0,5-2.2,5-5S82.8,110,80,110z"/>
	<path class="st1" d="M110,230H95v-5c0-2.8-2.2-5-5-5s-5,2.2-5,5v10c0,1.4,0.6,2.6,1.5,3.5s2.2,1.5,3.5,1.5h20c2.8,0,5-2.2,5-5
		S112.8,230,110,230z"/>
	<path class="st1" d="M215,225c0-2.8-2.2-5-5-5s-5,2.2-5,5v5h-15c-2.8,0-5,2.2-5,5s2.2,5,5,5h20c2.8,0,5-2.2,5-5c0,0,0,0,0,0V225z"
		/>
</g>
</svg>
