<?xml version="1.0" encoding="utf-8"?>
<!-- Generator: Adobe Illustrator 27.0.1, SVG Export Plug-In . SVG Version: 6.00 Build 0)  -->
<svg version="1.1" id="Layer_1" xmlns="http://www.w3.org/2000/svg" xmlns:xlink="http://www.w3.org/1999/xlink" x="0px" y="0px"
	 viewBox="0 0 1920 540" style="enable-background:new 0 0 1920 540;" xml:space="preserve">
<style type="text/css">
	.st0{fill:#FFFFFF;}
	.st1{fill:#142630;}
	.st2{fill:#FFD013;}
</style>
<g>
	<path class="st1" d="M1035.4,260.5h30c2.8,0,5-2.2,5-5v-15h15c2.8,0,5-2.2,5-5s-2.2-5-5-5h-15v-15c0-2.8-2.2-5-5-5h-20
		c-2.8,0-5,2.2-5,5s2.2,5,5,5h15v30h-25c-2.8,0-5,2.2-5,5S1032.6,260.5,1035.4,260.5z"/>
	<circle class="st1" cx="1045.4" cy="235.5" r="5"/>
	<path class="st1" d="M1170.4,220.5h15c2.8,0,5-2.2,5-5s-2.2-5-5-5h-20c-2.8,0-5,2.2-5,5v15h-15c-2.8,0-5,2.2-5,5s2.2,5,5,5h15v15
		c0,2.8,2.2,5,5,5h30c2.8,0,5-2.2,5-5s-2.2-5-5-5h-25V220.5z"/>
	<circle class="st1" cx="1185.4" cy="235.5" r="5"/>
	<circle class="st1" cx="1105.4" cy="245.5" r="5"/>
	<circle class="st1" cx="1125.4" cy="245.5" r="5"/>
	<path class="st1" d="M1170.4,275.5L1170.4,275.5L1170.4,275.5c0-2.8-2.2-5-5-5l0,0h0h-100l0,0h0c-2.8,0-5,2.2-5,5v0v0v10
		c0,2.8,2.2,5,5,5s5-2.2,5-5v-5h90v5c0,2.8,2.2,5,5,5s5-2.2,5-5V275.5z"/>
	<path class="st1" d="M1045.4,200.5h35v15v0v0c0,2.8,2.2,5,5,5h0l0,0h60h0l0,0c1.4,0,2.6-0.6,3.5-1.5c0.2-0.2,0.4-0.5,0.6-0.7
		c0.5-0.8,0.9-1.8,0.9-2.8v0v0v-15h35c2.8,0,5-2.2,5-5s-2.2-5-5-5h-40c-2.8,0-5,2.2-5,5v15h-50v-15c0-2.8-2.2-5-5-5h-40
		c-2.8,0-5,2.2-5,5S1042.6,200.5,1045.4,200.5z"/>
	<path class="st1" d="M1125.4,300.5c2.8,0,5-2.2,5-5s-2.2-5-5-5h-20c-2.8,0-5,2.2-5,5s2.2,5,5,5H1125.4z"/>
	<path class="st1" d="M1155.4,340.5h-5v-25c0-2.8-2.2-5-5-5s-5,2.2-5,5v5h-50v-5c0-2.8-2.2-5-5-5s-5,2.2-5,5v25h-5c-2.8,0-5,2.2-5,5
		v0c0,2.8,2.2,5,5,5h10c0,0,0,0,0,0c0,0,0,0,0,0h10c2.8,0,5-2.2,5-5v0c0-2.8-2.2-5-5-5h-5v-10h50v10h-5c-2.8,0-5,2.2-5,5s2.2,5,5,5
		h10c0,0,0,0,0,0c0,0,0,0,0,0h10c2.8,0,5-2.2,5-5S1158.1,340.5,1155.4,340.5z"/>
	<path class="st1" d="M1055.4,310.5h-15v-10h5c2.8,0,5-2.2,5-5s-2.2-5-5-5h-10c0,0,0,0,0,0c-2.8,0-5,2.2-5,5v20c0,2.8,2.2,5,5,5
		c0,0,0,0,0,0h15v10h-5c-2.8,0-5,2.2-5,5s2.2,5,5,5h10c2.8,0,5-2.2,5-5v-20c0,0,0,0,0,0s0,0,0,0
		C1060.4,312.7,1058.1,310.5,1055.4,310.5z"/>
	<path class="st1" d="M1195.4,290.5c-0.1,0-0.1,0-0.2,0h-9.8c-2.8,0-5,2.2-5,5s2.2,5,5,5h5v10h-15c-2.8,0-5,2.2-5,5c0,0,0,0,0,0
		s0,0,0,0v20c0,2.8,2.2,5,5,5h10c2.8,0,5-2.2,5-5s-2.2-5-5-5h-5v-10h15c0,0,0,0,0,0c2.8,0,5-2.2,5-5v-20
		C1200.4,292.7,1198.1,290.5,1195.4,290.5z"/>
</g>
<g>
	<path class="st1" d="M305.4,215.6c0-2.8-2.2-5-5-5h-25c-2.8,0-5,2.2-5,5v0c0,2.8,2.2,5,5,5h20v10h-10c-2.8,0-5,2.2-5,5s2.2,5,5,5
		h15c2.8,0,5-2.2,5-5V215.6L305.4,215.6L305.4,215.6L305.4,215.6z"/>
	<circle class="st1" cx="195.4" cy="195.6" r="5"/>
	<circle class="st1" cx="235.4" cy="195.6" r="5"/>
	<path class="st1" d="M255.4,340.6c2.8,0,5-2.2,5-5v-15h5c2.8,0,5-2.2,5-5c0,0,0,0,0,0s0,0,0,0v-80c0-2.8-2.2-5-5-5h-5v-15
		c0-2.8-2.2-5-5-5h-20c-2.8,0-5,2.2-5,5v5h-10v-35c0-2.8-2.2-5-5-5s-5,2.2-5,5v35h-10v-5c0-2.8-2.2-5-5-5h-20c-2.8,0-5,2.2-5,5v15
		h-5c-2.8,0-5,2.2-5,5v80c0,0,0,0,0,0s0,0,0,0c0,2.8,2.2,5,5,5h5v15c0,2.8,2.2,5,5,5h15v5c0,2.8,2.2,5,5,5h40c2.8,0,5-2.2,5-5v-5
		H255.4z M250.4,330.6h-10v-10h10V330.6z M170.4,310.6v-30h20v30H170.4z M190.4,240.6v30h-20v-30H190.4z M260.4,240.6v30h-20v-30
		H260.4z M240.4,310.6v-30h20v30H240.4z M200.4,315.6v-15h30v15v5h-30V315.6z M230.4,290.6h-30v-30h30V290.6z M200.4,330.6h30v10
		h-30V330.6z M240.4,230.6v-10h10v10H240.4z M230.4,230.6v5v15h-30v-15v-5H230.4z M180.4,220.6h10v10h-10V220.6z M180.4,330.6v-10
		h10v10H180.4z"/>
	<path class="st1" d="M145.4,230.6h-10v-10h20c2.8,0,5-2.2,5-5s-2.2-5-5-5h-25c-2.8,0-5,2.2-5,5l0,0v0v20c0,2.8,2.2,5,5,5h15
		c2.8,0,5-2.2,5-5S148.1,230.6,145.4,230.6z"/>
	<path class="st1" d="M175.4,350.6h-15v-5c0-2.8-2.2-5-5-5s-5,2.2-5,5v10c0,1.4,0.6,2.6,1.5,3.5s2.2,1.5,3.5,1.5h20c2.8,0,5-2.2,5-5
		S178.1,350.6,175.4,350.6z"/>
	<path class="st1" d="M280.4,345.6c0-2.8-2.2-5-5-5s-5,2.2-5,5v5h-15c-2.8,0-5,2.2-5,5s2.2,5,5,5h20c2.8,0,5-2.2,5-5c0,0,0,0,0,0
		V345.6z"/>
</g>
<g>
	<path class="st1" d="M1485.4,245.6h-30c-2.8,0-5,2.2-5,5v0v0v10c0,2.8,2.2,5,5,5h0c2.8,0,5-2.2,5-5v-5h20v10h-5c-2.8,0-5,2.2-5,5
		s2.2,5,5,5h10c2.8,0,5-2.2,5-5v-20v0v0C1490.4,247.9,1488.1,245.6,1485.4,245.6z"/>
	<path class="st1" d="M1425.4,345.6h-20c-2.8,0-5,2.2-5,5s2.2,5,5,5h20c2.8,0,5-2.2,5-5S1428.1,345.6,1425.4,345.6z"/>
	<path class="st1" d="M1445.4,275.6h-10h0c-1.7,0-3.2,0.9-4.1,2.2c-0.5,0.8-0.9,1.8-0.9,2.8v10c0,2.8,2.2,5,5,5h0c2.8,0,5-2.2,5-5
		v-5h5c2.8,0,5-2.2,5-5S1448.1,275.6,1445.4,275.6z"/>
	<path class="st1" d="M1380.4,250.6L1380.4,250.6L1380.4,250.6c0-2.8-2.2-5-5-5h-30c-2.8,0-5,2.2-5,5l0,0v0v20c0,2.8,2.2,5,5,5h10
		c2.8,0,5-2.2,5-5s-2.2-5-5-5h-5v-10h20v5c0,2.8,2.2,5,5,5c2.8,0,5-2.2,5-5V250.6z"/>
	<path class="st1" d="M1390.4,290.6c0,2.8,2.2,5,5,5h0c2.8,0,5-2.2,5-5v-10c0-2.8-2.2-5-5-5h0h-10c-2.8,0-5,2.2-5,5s2.2,5,5,5h5
		V290.6z"/>
	<path class="st1" d="M1495.4,185.6h-10c-2.8,0-5,2.2-5,5s2.2,5,5,5h5v10h-5c-2.8,0-5,2.2-5,5s2.2,5,5,5h5v10h-20v-15
		c0-2.8-2.2-5-5-5h0c-2.8,0-5,2.2-5,5v15h-20v-25c0-2.8-2.2-5-5-5c-2.8,0-5,2.2-5,5v55h-15h0h-15v-25c0,0,0,0,0,0v0c0,0,0,0,0,0v-30
		c0-2.8-2.2-5-5-5c-2.8,0-5,2.2-5,5v25h-20v-15c0-2.8-2.2-5-5-5c-2.8,0-5,2.2-5,5v15h-20v-10h5c2.8,0,5-2.2,5-5s-2.2-5-5-5h-5v-10h5
		c2.8,0,5-2.2,5-5s-2.2-5-5-5h-10h0c-1.7,0-3.2,0.9-4.1,2.2c-0.5,0.8-0.9,1.8-0.9,2.8v40v0c0,1,0.3,2,0.9,2.8
		c0.9,1.3,2.4,2.2,4.1,2.2h0h55v25c0,2.8,2.2,5,5,5c0,0,0,0,0,0c0,0,0,0,0,0h15v25c0,2.8,2.2,5,5,5h0c2.8,0,5-2.2,5-5v-25h15
		c2.8,0,5-2.2,5-5c0,0,0,0,0,0v-25h25c0,0,0,0,0,0h0c0,0,0,0,0,0h30c2.8,0,5-2.2,5-5v0v-40C1500.4,187.9,1498.1,185.6,1495.4,185.6z
		"/>
	<path class="st1" d="M1440.4,310.6c0-2.8-2.2-5-5-5h-40c0,0,0,0,0,0c0,0,0,0,0,0c-2.8,0-5,2.2-5,5v20c0,2.8,2.2,5,5,5c0,0,0,0,0,0
		c0,0,0,0,0,0h10c2.8,0,5-2.2,5-5s-2.2-5-5-5h-5v-10h30v10h-5c-2.8,0-5,2.2-5,5s2.2,5,5,5h10c2.8,0,5-2.2,5-5c0,0,0,0,0,0
		L1440.4,310.6C1440.4,310.6,1440.4,310.6,1440.4,310.6z"/>
</g>
<g>
	<path class="st1" d="M1745.4,250.6c-2.8,0-5,2.2-5,5s2.2,5,5,5h20c0,0,0,0,0,0c0,0,0,0,0,0c2.8,0,5-2.2,5-5v-45h15c2.8,0,5-2.2,5-5
		v0c0-2.8-2.2-5-5-5h-20c0,0,0,0,0,0c-2.8,0-5,2.2-5,5v0v0v45H1745.4z"/>
	<path class="st1" d="M1685.4,290.6h-20c0,0,0,0,0,0c-2.8,0-5,2.2-5,5v45h-15c-2.8,0-5,2.2-5,5s2.2,5,5,5h20c2.8,0,5-2.2,5-5v-45h15
		c2.8,0,5-2.2,5-5S1688.1,290.6,1685.4,290.6z"/>
	<path class="st1" d="M1795.4,270.6h-50c-2.8,0-5,2.2-5,5s2.2,5,5,5h50c2.8,0,5-2.2,5-5S1798.1,270.6,1795.4,270.6z"/>
	<path class="st1" d="M1690.4,275.6c0-2.8-2.2-5-5-5h-50c-2.8,0-5,2.2-5,5c0,2.8,2.2,5,5,5h50
		C1688.1,280.6,1690.4,278.4,1690.4,275.6z"/>
	<path class="st1" d="M1735.4,310.6h-40c-2.8,0-5,2.2-5,5v30c0,2.8,2.2,5,5,5h15v5c0,2.8,2.2,5,5,5c2.8,0,5-2.2,5-5v-5h15
		c2.8,0,5-2.2,5-5v-30C1740.4,312.9,1738.1,310.6,1735.4,310.6z M1700.4,340.6v-20h30v20H1700.4z"/>
	<path class="st1" d="M1785.4,340.6h-15v-45c0,0,0,0,0,0c0,0,0,0,0,0c0-2.8-2.2-5-5-5h-20c-2.8,0-5,2.2-5,5s2.2,5,5,5h15v45
		c0,0,0,0,0,0s0,0,0,0c0,2.8,2.2,5,5,5h20c2.8,0,5-2.2,5-5S1788.1,340.6,1785.4,340.6z"/>
	<path class="st1" d="M1645.4,210.6h15v45c0,2.8,2.2,5,5,5c0,0,0,0,0,0s0,0,0,0h20c2.8,0,5-2.2,5-5c0-2.8-2.2-5-5-5h-15v-45v0v0
		c0-2.8-2.2-5-5-5c0,0,0,0,0,0s0,0,0,0h-20c-2.8,0-5,2.2-5,5v0C1640.4,208.4,1642.6,210.6,1645.4,210.6z"/>
	<path class="st1" d="M1685.4,220.6h15v15c0,2.8,2.2,5,5,5h20c2.8,0,5-2.2,5-5v-15h15c2.8,0,5-2.2,5-5v-30c0-2.8-2.2-5-5-5
		c-2.8,0-5,2.2-5,5v25h-10v-5c0-2.8-2.2-5-5-5h-5v-5c0-2.8-2.2-5-5-5c-2.8,0-5,2.2-5,5v5h-5c-2.8,0-5,2.2-5,5v5h-10v-25
		c0-2.8-2.2-5-5-5c-2.8,0-5,2.2-5,5v30C1680.4,218.4,1682.6,220.6,1685.4,220.6z M1720.4,210.6v20h-10v-20H1720.4z"/>
	<path class="st1" d="M1725.4,250.6h-20c-2.8,0-5,2.2-5,5v40c0,2.8,2.2,5,5,5h20c2.8,0,5-2.2,5-5v-40
		C1730.4,252.9,1728.1,250.6,1725.4,250.6z M1720.4,260.6v30h-10v-30H1720.4z"/>
</g>
<g>
	<path class="st1" d="M455.4,260.6c-2.8,0-5,2.2-5,5v5h-15c-2.8,0-5,2.2-5,5v0c0,2.8,2.2,5,5,5h20c2.8,0,5-2.2,5-5v0v-10
		C460.4,262.9,458.1,260.6,455.4,260.6z"/>
	<path class="st1" d="M480.4,260.6h10v10h-5c-2.8,0-5,2.2-5,5s2.2,5,5,5h5v15c0,2.8,2.2,5,5,5c2.8,0,5-2.2,5-5v-20v0v-20
		c0-2.8-2.2-5-5-5h-20c-2.8,0-5,2.2-5,5v10c0,2.8,2.2,5,5,5s5-2.2,5-5V260.6z"/>
	<path class="st1" d="M433.4,240.2c0.6,0.3,1.3,0.4,1.9,0.4h40c2.8,0,5-2.2,5-5s-2.2-5-5-5h-35v-30h25c2.8,0,5-2.2,5-5s-2.2-5-5-5
		h-30c-2.8,0-5,2.2-5,5v40C430.4,237.7,431.6,239.5,433.4,240.2z"/>
	<path class="st1" d="M495.4,220.6h15v15c0,2.8,2.2,5,5,5s5-2.2,5-5v-15h15c2.8,0,5-2.2,5-5s-2.2-5-5-5h-40c-2.8,0-5,2.2-5,5
		S492.6,220.6,495.4,220.6z"/>
	<path class="st1" d="M595.4,190.6h-30c-2.8,0-5,2.2-5,5s2.2,5,5,5h25v30h-35c-2.8,0-5,2.2-5,5s2.2,5,5,5h40c0.7,0,1.3-0.1,1.9-0.4
		c1.8-0.8,3.1-2.5,3.1-4.6v-40C600.4,192.9,598.1,190.6,595.4,190.6z"/>
	<path class="st1" d="M555.4,250.6h-20c-2.8,0-5,2.2-5,5v20v0v20c0,2.8,2.2,5,5,5s5-2.2,5-5v-15h5c2.8,0,5-2.2,5-5v0
		c0-2.8-2.2-5-5-5h-5v-10h10v5c0,2.8,2.2,5,5,5s5-2.2,5-5v-10C560.4,252.9,558.1,250.6,555.4,250.6z"/>
	<path class="st1" d="M515.3,250.6c-2.8,0-5,2.2-5,5v20c0,2.8,2.2,5,5,5s5-2.2,5-5v-20C520.3,252.9,518.1,250.6,515.3,250.6z"/>
	<path class="st1" d="M595.4,270.6h-15v-5c0-2.8-2.2-5-5-5s-5,2.2-5,5v10v0c0,2.8,2.2,5,5,5h20c2.8,0,5-2.2,5-5v0
		C600.4,272.9,598.1,270.6,595.4,270.6z"/>
	<path class="st1" d="M525.4,340.6h-20c-2.8,0-5,2.2-5,5s2.2,5,5,5h20c2.8,0,5-2.2,5-5S528.1,340.6,525.4,340.6z"/>
	<path class="st1" d="M500.4,315.6c0-2.1-1.3-3.8-3.1-4.6c-0.6-0.3-1.3-0.4-1.9-0.4h-10c-2.8,0-5,2.2-5,5s2.2,5,5,5h5v5
		c0,2.8,2.2,5,5,5s5-2.2,5-5V315.6z"/>
	<path class="st1" d="M545.4,310.6h-10c0,0,0,0,0,0c-2.8,0-5,2.2-5,5v10c0,2.8,2.2,5,5,5s5-2.2,5-5v-5h5c2.8,0,5-2.2,5-5
		S548.1,310.6,545.4,310.6z"/>
</g>
<g>
	<path class="st1" d="M775.4,310.6h-5v-5c0-2.8-2.2-5-5-5c-2.8,0-5,2.2-5,5v10c0,2.8,2.2,5,5,5c0,0,0,0,0,0h10c2.8,0,5-2.2,5-5
		C780.4,312.9,778.1,310.6,775.4,310.6z"/>
	<path class="st1" d="M805.4,320.6h-5v-5c0-2.8-2.2-5-5-5c-2.8,0-5,2.2-5,5v10c0,2.8,2.2,5,5,5h10c2.8,0,5-2.2,5-5
		S808.1,320.6,805.4,320.6z"/>
	<path class="st1" d="M865.4,300.6c-2.8,0-5,2.2-5,5v5h-5c-2.8,0-5,2.2-5,5s2.2,5,5,5h10c1,0,2-0.3,2.8-0.9c1.3-0.9,2.2-2.4,2.2-4.1
		v-10C870.4,302.9,868.1,300.6,865.4,300.6z"/>
	<path class="st1" d="M835.4,310.6c-2.8,0-5,2.2-5,5v5h-5c-2.8,0-5,2.2-5,5s2.2,5,5,5h10c2.8,0,5-2.2,5-5v-10
		C840.4,312.9,838.1,310.6,835.4,310.6z"/>
	<path class="st1" d="M845.4,230.6h40c1,0,2-0.3,2.8-0.9c1.3-0.9,2.2-2.4,2.2-4.1v-20c0-2.8-2.2-5-5-5c-2.8,0-5,2.2-5,5v15h-35
		c-2.8,0-5,2.2-5,5S842.6,230.6,845.4,230.6z"/>
	<circle class="st1" cx="865.4" cy="265.6" r="5"/>
	<path class="st1" d="M745.4,230.6h40c2.8,0,5-2.2,5-5s-2.2-5-5-5h-35v-15c0-2.8-2.2-5-5-5c-2.8,0-5,2.2-5,5v20
		C740.4,228.4,742.6,230.6,745.4,230.6z"/>
	<path class="st1" d="M820.4,280.6h5c2.8,0,5-2.2,5-5s-2.2-5-5-5h-5v-5c0-2.8-2.2-5-5-5c-2.8,0-5,2.2-5,5v5h-5c-2.8,0-5,2.2-5,5
		s2.2,5,5,5h5v25c0,2.8,2.2,5,5,5c2.8,0,5-2.2,5-5V280.6z"/>
	<path class="st1" d="M890.4,285.6v-40c0-2.8-2.2-5-5-5h-40c-2.8,0-5,2.2-5,5v40c0,2.8,2.2,5,5,5h40
		C888.1,290.6,890.4,288.4,890.4,285.6z M880.4,280.6h-30v-30h30V280.6z"/>
	<circle class="st1" cx="765.4" cy="265.6" r="5"/>
	<path class="st1" d="M790.4,245.6c0-2.8-2.2-5-5-5h-40c-2.8,0-5,2.2-5,5v40c0,2.8,2.2,5,5,5h40c2.8,0,5-2.2,5-5V245.6z
		 M780.4,250.6v30h-30v-30H780.4z"/>
	<path class="st1" d="M805.4,255.6c2.8,0,5-2.2,5-5v-25c0-2.8-2.2-5-5-5c-2.8,0-5,2.2-5,5v25C800.4,253.4,802.6,255.6,805.4,255.6z"
		/>
	<path class="st1" d="M825.4,255.6c2.8,0,5-2.2,5-5v-25c0-2.8-2.2-5-5-5c-2.8,0-5,2.2-5,5v25C820.4,253.4,822.6,255.6,825.4,255.6z"
		/>
	<path class="st1" d="M880.4,305.6c0,2.8,2.2,5,5,5h10c2.8,0,5-2.2,5-5s-2.2-5-5-5h-10C882.6,300.6,880.4,302.9,880.4,305.6z"/>
	<path class="st1" d="M745.4,300.6h-10c-2.8,0-5,2.2-5,5s2.2,5,5,5h10c2.8,0,5-2.2,5-5S748.1,300.6,745.4,300.6z"/>
	<path class="st1" d="M895.4,320.6h-10c-2.8,0-5,2.2-5,5s2.2,5,5,5h10c2.8,0,5-2.2,5-5S898.1,320.6,895.4,320.6z"/>
	<path class="st1" d="M745.4,320.6h-10c-2.8,0-5,2.2-5,5s2.2,5,5,5h10c2.8,0,5-2.2,5-5S748.1,320.6,745.4,320.6z"/>
</g>
</svg>
