<?xml version="1.0" encoding="utf-8"?>
<!-- Generator: Adobe Illustrator 27.0.1, SVG Export Plug-In . SVG Version: 6.00 Build 0)  -->
<svg version="1.1" id="Layer_1" xmlns="http://www.w3.org/2000/svg" xmlns:xlink="http://www.w3.org/1999/xlink" x="0px" y="0px"
	 viewBox="0 0 300 300" style="enable-background:new 0 0 300 300;" xml:space="preserve">
<style type="text/css">
	.st0{fill:#FFFFFF;}
	.st1{fill:#142630;}
	.st2{fill:#FFD013;}
</style>
<g>
	<path class="st1" d="M180,130c-2.8,0-5,2.2-5,5s2.2,5,5,5h20c0,0,0,0,0,0s0,0,0,0c2.8,0,5-2.2,5-5V90h15c2.8,0,5-2.2,5-5v0
		c0-2.8-2.2-5-5-5h-20c0,0,0,0,0,0c-2.8,0-5,2.2-5,5v0v0v45H180z"/>
	<path class="st1" d="M120,170h-20c0,0,0,0,0,0c-2.8,0-5,2.2-5,5v45H80c-2.8,0-5,2.2-5,5s2.2,5,5,5h20c2.8,0,5-2.2,5-5v-45h15
		c2.8,0,5-2.2,5-5S122.8,170,120,170z"/>
	<path class="st1" d="M230,150h-50c-2.8,0-5,2.2-5,5s2.2,5,5,5h50c2.8,0,5-2.2,5-5S232.8,150,230,150z"/>
	<path class="st1" d="M125,155c0-2.8-2.2-5-5-5H70c-2.8,0-5,2.2-5,5c0,2.8,2.2,5,5,5h50C122.8,160,125,157.8,125,155z"/>
	<path class="st1" d="M170,190h-40c-2.8,0-5,2.2-5,5v30c0,2.8,2.2,5,5,5h15v5c0,2.8,2.2,5,5,5s5-2.2,5-5v-5h15c2.8,0,5-2.2,5-5v-30
		C175,192.2,172.8,190,170,190z M135,220v-20h30v20H135z"/>
	<path class="st1" d="M220,220h-15v-45c0,0,0,0,0,0c0,0,0,0,0,0c0-2.8-2.2-5-5-5h-20c-2.8,0-5,2.2-5,5s2.2,5,5,5h15v45c0,0,0,0,0,0
		s0,0,0,0c0,2.8,2.2,5,5,5h20c2.8,0,5-2.2,5-5S222.8,220,220,220z"/>
	<path class="st1" d="M80,90h15v45c0,2.8,2.2,5,5,5c0,0,0,0,0,0s0,0,0,0h20c2.8,0,5-2.2,5-5c0-2.8-2.2-5-5-5h-15V85v0v0
		c0-2.8-2.2-5-5-5c0,0,0,0,0,0s0,0,0,0H80c-2.8,0-5,2.2-5,5v0C75,87.8,77.2,90,80,90z"/>
	<path class="st1" d="M120,100h15v15c0,2.8,2.2,5,5,5h20c2.8,0,5-2.2,5-5v-15h15c2.8,0,5-2.2,5-5V65c0-2.8-2.2-5-5-5s-5,2.2-5,5v25
		h-10v-5c0-2.8-2.2-5-5-5h-5v-5c0-2.8-2.2-5-5-5s-5,2.2-5,5v5h-5c-2.8,0-5,2.2-5,5v5h-10V65c0-2.8-2.2-5-5-5s-5,2.2-5,5v30
		C115,97.8,117.2,100,120,100z M155,90v20h-10V90H155z"/>
	<path class="st1" d="M160,130h-20c-2.8,0-5,2.2-5,5v40c0,2.8,2.2,5,5,5h20c2.8,0,5-2.2,5-5v-40C165,132.2,162.8,130,160,130z
		 M155,140v30h-10v-30H155z"/>
</g>
</svg>
