<?xml version="1.0" encoding="utf-8"?>
<!-- Generator: Adobe Illustrator 27.0.1, SVG Export Plug-In . SVG Version: 6.00 Build 0)  -->
<svg version="1.1" id="Layer_1" xmlns="http://www.w3.org/2000/svg" xmlns:xlink="http://www.w3.org/1999/xlink" x="0px" y="0px"
	 viewBox="0 0 300 300" style="enable-background:new 0 0 300 300;" xml:space="preserve">
<style type="text/css">
	.st0{fill:#FFFFFF;}
	.st1{fill:#142630;}
	.st2{fill:#FFD013;}
</style>
<g>
	<path class="st1" d="M110,190h-5v-5c0-2.8-2.2-5-5-5c-2.8,0-5,2.2-5,5v10c0,2.8,2.2,5,5,5c0,0,0,0,0,0h10c2.8,0,5-2.2,5-5
		C115,192.2,112.8,190,110,190z"/>
	<path class="st1" d="M140,200h-5v-5c0-2.8-2.2-5-5-5c-2.8,0-5,2.2-5,5v10c0,2.8,2.2,5,5,5h10c2.8,0,5-2.2,5-5S142.8,200,140,200z"
		/>
	<path class="st1" d="M200,180c-2.8,0-5,2.2-5,5v5h-5c-2.8,0-5,2.2-5,5s2.2,5,5,5h10c1,0,2-0.3,2.8-0.9c1.3-0.9,2.2-2.4,2.2-4.1v-10
		C205,182.2,202.8,180,200,180z"/>
	<path class="st1" d="M170,190c-2.8,0-5,2.2-5,5v5h-5c-2.8,0-5,2.2-5,5s2.2,5,5,5h10c2.8,0,5-2.2,5-5v-10
		C175,192.2,172.8,190,170,190z"/>
	<path class="st1" d="M180,110h40c1,0,2-0.3,2.8-0.9c1.3-0.9,2.2-2.4,2.2-4.1V85c0-2.8-2.2-5-5-5c-2.8,0-5,2.2-5,5v15h-35
		c-2.8,0-5,2.2-5,5S177.2,110,180,110z"/>
	<circle class="st1" cx="200" cy="145" r="5"/>
	<path class="st1" d="M80,110h40c2.8,0,5-2.2,5-5s-2.2-5-5-5H85V85c0-2.8-2.2-5-5-5c-2.8,0-5,2.2-5,5v20C75,107.8,77.2,110,80,110z"
		/>
	<path class="st1" d="M155,160h5c2.8,0,5-2.2,5-5s-2.2-5-5-5h-5v-5c0-2.8-2.2-5-5-5c-2.8,0-5,2.2-5,5v5h-5c-2.8,0-5,2.2-5,5
		s2.2,5,5,5h5v25c0,2.8,2.2,5,5,5c2.8,0,5-2.2,5-5V160z"/>
	<path class="st1" d="M225,165v-40c0-2.8-2.2-5-5-5h-40c-2.8,0-5,2.2-5,5v40c0,2.8,2.2,5,5,5h40C222.8,170,225,167.8,225,165z
		 M215,160h-30v-30h30V160z"/>
	<circle class="st1" cx="100" cy="145" r="5"/>
	<path class="st1" d="M125,125c0-2.8-2.2-5-5-5H80c-2.8,0-5,2.2-5,5v40c0,2.8,2.2,5,5,5h40c2.8,0,5-2.2,5-5V125z M115,130v30H85v-30
		H115z"/>
	<path class="st1" d="M140,135c2.8,0,5-2.2,5-5v-25c0-2.8-2.2-5-5-5c-2.8,0-5,2.2-5,5v25C135,132.8,137.2,135,140,135z"/>
	<path class="st1" d="M160,135c2.8,0,5-2.2,5-5v-25c0-2.8-2.2-5-5-5c-2.8,0-5,2.2-5,5v25C155,132.8,157.2,135,160,135z"/>
	<path class="st1" d="M215,185c0,2.8,2.2,5,5,5h10c2.8,0,5-2.2,5-5s-2.2-5-5-5h-10C217.2,180,215,182.2,215,185z"/>
	<path class="st1" d="M80,180H70c-2.8,0-5,2.2-5,5s2.2,5,5,5h10c2.8,0,5-2.2,5-5S82.8,180,80,180z"/>
	<path class="st1" d="M230,200h-10c-2.8,0-5,2.2-5,5s2.2,5,5,5h10c2.8,0,5-2.2,5-5S232.8,200,230,200z"/>
	<path class="st1" d="M80,200H70c-2.8,0-5,2.2-5,5s2.2,5,5,5h10c2.8,0,5-2.2,5-5S82.8,200,80,200z"/>
</g>
</svg>
